HIERARCHY
ROOT Hips
{
    OFFSET 0.000000 0.000000 0.000000
    CHANNELS 6 Xposition Yposition Zposition Zrotation Xrotation Yrotation
    JOINT Spine
    {
        OFFSET -0.000000 7.925200 0.000000
        CHANNELS 3 Zrotation Xrotation Yrotation
        JOINT Spine1
        {
            OFFSET -0.000000 23.364719 0.000000
            CHANNELS 3 Zrotation Xrotation Yrotation
            JOINT Neck
            {
                OFFSET -0.000000 23.268766 2.115342
                CHANNELS 3 Zrotation Xrotation Yrotation
                JOINT Head
                {
                    OFFSET -0.000000 13.530829 -1.932976
                    CHANNELS 3 Zrotation Xrotation Yrotation
                    End Site
                    {
                        OFFSET -0.000000 24.162195 0.000000
                    }
                }
            }
            JOINT LeftShoulder
            {
                OFFSET 3.858291 22.792089 -0.033814
                CHANNELS 3 Zrotation Xrotation Yrotation
                JOINT LeftArm
                {
                    OFFSET 7.057024 0.000000 0.000000
                    CHANNELS 3 Zrotation Xrotation Yrotation
                    JOINT LeftForeArm
                    {
                        OFFSET 34.734173 0.000000 0.000000
                        CHANNELS 3 Zrotation Xrotation Yrotation
                        JOINT LeftHand
                        {
                            OFFSET 23.943203 0.000000 0.000000
                            CHANNELS 3 Zrotation Xrotation Yrotation
                            End Site
                            {
                                OFFSET 14.497317 0.000000 0.000000
                            }
                        }
                    }
                }
            }
            JOINT RightShoulder
            {
                OFFSET -3.868823 22.792089 -0.033814
                CHANNELS 3 Zrotation Xrotation Yrotation
                JOINT RightArm
                {
                    OFFSET -7.057024 0.000000 0.000000
                    CHANNELS 3 Zrotation Xrotation Yrotation
                    JOINT RightForeArm
                    {
                        OFFSET -34.734173 0.000000 0.000000
                        CHANNELS 3 Zrotation Xrotation Yrotation
                        JOINT RightHand
                        {
                            OFFSET -23.943203 0.000000 0.000000
                            CHANNELS 3 Zrotation Xrotation Yrotation
                            End Site
                            {
                                OFFSET -14.497317 0.000000 0.000000
                            }
                        }
                    }
                }
            }
        }
    }
    JOINT LeftUpLeg
    {
        OFFSET 9.664878 0.000000 0.000000
        CHANNELS 3 Zrotation Xrotation Yrotation
        JOINT LeftLeg
        {
            OFFSET -0.000000 -38.728706 0.000000
            CHANNELS 3 Zrotation Xrotation Yrotation
            JOINT LeftFoot
            {
                OFFSET -0.000000 -40.242161 0.000000
                CHANNELS 3 Zrotation Xrotation Yrotation
                JOINT LeftToeBase
                {
                    OFFSET -0.000000 -6.282171 14.497317
                    CHANNELS 3 Zrotation Xrotation Yrotation
                    End Site
                    {
                        OFFSET -0.000000 0.000000 3.865951
                    }
                }
            }
        }
    }
    JOINT RightUpLeg
    {
        OFFSET -9.664878 0.000000 0.000000
        CHANNELS 3 Zrotation Xrotation Yrotation
        JOINT RightLeg
        {
            OFFSET -0.000000 -38.728706 0.000000
            CHANNELS 3 Zrotation Xrotation Yrotation
            JOINT RightFoot
            {
                OFFSET -0.000000 -40.242161 0.000000
                CHANNELS 3 Zrotation Xrotation Yrotation
                JOINT RightToeBase
                {
                    OFFSET -0.000000 -6.282171 14.497317
                    CHANNELS 3 Zrotation Xrotation Yrotation
                    End Site
                    {
                        OFFSET -0.000000 0.000000 3.865951
                    }
                }
            }
        }
    }
}
MOTION
Frames:    8
Frame Time:    0.008333
-35.424126    88.827118    29.055149    -0.904662    1.975646    84.154167    1.088135    -5.611035    1.046350    -2.218515    7.377418    1.135995    -3.172887    9.525136    -0.368690    1.681220    1.750292    0.029769    -2.209255    5.698067    4.471299    -49.960423    63.579334    -7.675774    3.222219    -12.790475    -30.977690    -12.110367    -11.573381    -3.321306    -0.393617    6.126674    2.624853    30.488726    60.378632    33.585522    -2.188442    -13.630789    20.732943    4.229294    -13.158927    2.286861    8.726906    -18.496998    4.213157    -17.944845    54.835770    6.488932    -2.888586    -7.087082    6.569699    0.000000    0.000000    0.000000    2.888565    -5.070844    2.191970    -1.207663    11.147992    2.394942    -4.539861    -6.377962    -8.583100    0.000000    0.000000    0.000000    
-34.711613    88.821625    29.063580    -0.963028    2.060611    83.846115    1.007756    -5.500561    1.277622    -2.249537    7.141480    1.369550    -3.161433    9.968013    -0.550863    1.864226    1.101592    -0.139506    -2.149923    5.799880    4.517471    -50.363403    63.478901    -7.286569    3.071826    -12.920556    -30.711330    -12.086441    -11.742184    -3.426588    -0.280968    6.128077    2.448342    30.149534    60.218056    33.748043    -2.114986    -13.464311    20.973606    3.574498    -13.026197    1.868782    8.650264    -19.102863    3.876262    -17.638962    53.298534    6.120424    -3.161427    -7.138506    6.994695    0.000000    0.000000    0.000000    2.739846    -4.572660    2.139969    -1.179234    10.974999    2.834378    -4.637504    -6.740956    -8.732211    0.000000    0.000000    0.000000    
-33.990978    88.824455    29.081440    -1.030895    2.085793    83.581596    1.105285    -5.491803    1.339045    -2.308975    7.030580    1.427800    -3.353492    9.644035    -0.346646    1.796988    1.613405    0.077189    -2.355257    5.551417    4.586666    -51.343506    63.189690    -5.943834    2.817613    -12.982114    -30.544283    -11.992280    -11.891644    -3.308634    -0.418668    6.172122    2.751102    30.159786    59.954082    33.851654    -2.250053    -13.435257    20.892899    3.483513    -12.973840    1.933799    8.587136    -19.602577    3.633850    -17.022505    51.535904    5.604542    -3.351638    -7.024107    7.228694    0.000000    0.000000    0.000000    2.671308    -4.017882    2.107008    -1.173801    10.691253    3.029519    -4.617671    -7.044382    -8.788305    0.000000    0.000000    0.000000    
-33.251968    88.806602    29.089699    -1.065331    2.129705    83.342499    1.220569    -5.359177    1.405477    -2.527669    6.718323    1.496627    -3.670056    10.169602    -0.381821    2.271288    1.017536    0.115536    -2.476692    5.779410    4.858849    -51.349224    63.101490    -5.715023    2.668458    -13.130059    -30.252167    -11.950831    -12.054970    -3.634792    -0.375981    6.460599    3.031551    29.932390    59.571159    34.082787    -2.155820    -13.347795    21.016523    2.870722    -12.922663    1.452077    8.491705    -20.087730    3.187580    -16.716164    49.718021    5.617083    -2.961298    -6.802276    7.523351    0.000000    0.000000    0.000000    2.554435    -3.448741    1.990372    -1.156542    10.469071    3.253396    -4.702652    -7.405604    -8.715905    0.000000    0.000000    0.000000    
-32.553589    88.790939    29.122902    -1.205220    2.065034    83.034821    1.257719    -5.529193    1.583508    -2.388987    6.937129    1.667502    -3.731601    9.751244    -0.344947    2.147464    1.299488    0.150050    -2.517138    5.803934    4.841818    -51.646164    62.710068    -5.416150    2.568693    -13.167675    -30.096832    -12.030728    -12.142980    -3.414618    -0.627394    6.301703    2.935570    29.595331    59.529243    34.574070    -2.554224    -13.033881    20.927271    3.837737    -12.508427    1.992088    8.568951    -20.625614    2.950023    -16.282804    47.843361    5.488267    -3.474805    -6.601851    7.893885    0.000000    0.000000    0.000000    2.612940    -3.018678    2.011260    -1.184838    10.265203    3.373692    -4.680394    -7.654576    -8.626190    0.000000    0.000000    0.000000    
-31.857666    88.772934    29.128132    -1.314115    2.100245    82.833221    1.310045    -5.584501    1.667518    -2.464161    6.926569    1.752667    -3.939857    9.615476    -0.331896    2.358123    1.443377    0.205805    -2.567294    5.615907    4.938965    -52.158241    62.616562    -4.705491    2.447999    -13.151258    -29.932592    -11.933440    -12.177316    -3.291801    -0.740763    6.410767    2.998742    29.171598    59.359325    35.140995    -2.665012    -13.066951    20.935020    3.307720    -12.537947    1.724525    8.472456    -21.138414    2.585422    -15.733747    45.977608    5.257762    -3.681382    -6.361142    8.216080    0.000000    0.000000    0.000000    2.523678    -2.611029    1.779807    -1.205181    10.167871    3.818251    -4.774470    -7.976038    -8.686305    0.000000    0.000000    0.000000    
-31.131067    88.721153    29.149899    -1.403940    2.042387    82.573067    1.461266    -5.623010    1.769954    -2.582938    6.908623    1.853980    -4.049813    9.555585    -0.287988    2.482764    1.475856    0.274724    -2.607455    5.613619    5.129055    -52.322140    62.502094    -4.418535    2.405892    -13.211498    -29.650284    -12.279776    -12.239186    -3.348601    -0.822164    6.369481    3.189442    28.753103    59.331982    35.557056    -2.680706    -12.880925    21.028418    3.421377    -12.342639    1.799066    8.468938    -21.524364    2.284533    -15.100567    43.928093    5.014728    -3.480764    -6.196435    8.507099    0.000000    0.000000    0.000000    2.539031    -2.089106    1.823172    -1.204219    9.944146    3.995953    -4.744154    -8.360597    -8.815673    0.000000    0.000000    0.000000    
-30.390268    88.672279    29.141823    -1.432135    2.029286    82.408722    1.381051    -5.453575    1.974519    -2.455678    6.603884    2.050284    -3.616253    9.664668    -0.322432    1.895599    1.413273    0.133593    -2.621924    5.708046    4.919951    -52.764099    62.126587    -3.993869    2.324870    -13.044296    -29.314959    -12.187882    -12.085561    -3.506836    -0.655903    6.392391    2.923806    28.464905    59.264503    35.595547    -2.928206    -12.635432    21.073093    4.135279    -12.031144    2.036801    8.320726    -21.812475    1.921792    -14.365476    41.833630    4.853778    -4.028131    -5.970931    8.700792    0.000000    0.000000    0.000000    2.440187    -1.490110    1.698934    -1.149414    9.723253    4.367108    -4.817336    -8.737350    -8.998206    0.000000    0.000000    0.000000    
